<?xml version="1.0" standalone="no"?>
<!DOCTYPE svg PUBLIC "-//W3C//DTD SVG 20010904//EN"
 "http://www.w3.org/TR/2001/REC-SVG-20010904/DTD/svg10.dtd">
<svg version="1.0" xmlns="http://www.w3.org/2000/svg"
 width="512.000000pt" height="512.000000pt" viewBox="0 0 512.000000 512.000000"
 preserveAspectRatio="xMidYMid meet">
<metadata>
Created by potrace 1.14, written by Peter Selinger 2001-2017
</metadata>
<g transform="translate(0.000000,512.000000) scale(0.100000,-0.100000)"
fill="#000000" stroke="none">
<path d="M4725 4744 c-27 -13 -56 -24 -63 -24 -7 0 -20 -4 -30 -10 -24 -13
-278 -83 -347 -96 -52 -9 -73 -13 -115 -22 -25 -6 -61 -13 -80 -16 -19 -3 -44
-7 -55 -10 -11 -2 -40 -7 -65 -11 -25 -4 -54 -9 -65 -11 -20 -4 -73 -12 -122
-19 -42 -6 -105 -15 -133 -20 -14 -3 -45 -7 -70 -10 -25 -3 -61 -8 -80 -10
-19 -3 -55 -7 -80 -10 -25 -3 -61 -8 -80 -11 -58 -9 -82 -12 -160 -19 -41 -4
-77 -8 -80 -10 -3 -1 -36 -6 -75 -9 -38 -4 -90 -10 -115 -12 -63 -8 -106 -13
-170 -19 -76 -8 -127 -13 -185 -19 -47 -5 -84 -9 -215 -22 -30 -2 -75 -7 -100
-10 -25 -3 -72 -7 -105 -9 -33 -2 -80 -7 -105 -10 -25 -3 -78 -7 -117 -10 -40
-3 -76 -6 -80 -6 -24 -4 -30 4 -28 37 1 20 -3 38 -9 40 -6 2 -109 5 -228 7
-193 3 -218 2 -219 -12 -1 -9 -1 -37 -1 -63 0 -27 -3 -49 -7 -49 -18 -4 -110
-13 -251 -25 -30 -2 -77 -7 -105 -9 -27 -3 -75 -7 -105 -9 -169 -15 -252 -24
-315 -33 -22 -3 -51 -7 -65 -8 -161 -17 -324 -70 -375 -120 -29 -30 -57 -80
-48 -88 3 -4 7 -23 9 -42 6 -63 70 -150 191 -259 l43 -38 72 30 c98 40 340
107 458 127 19 3 42 8 50 10 20 6 67 14 109 20 34 5 66 11 106 19 11 2 40 7
65 10 25 3 70 10 100 15 30 5 56 8 58 6 1 -1 3 -74 4 -161 l1 -159 -27 -15
c-25 -15 -35 -30 -18 -30 5 0 18 -9 29 -19 20 -19 21 -25 18 -453 -3 -385 -7
-561 -20 -898 -2 -52 -7 -178 -10 -280 -4 -102 -8 -225 -10 -275 -15 -376 -1
-490 67 -551 58 -53 199 -57 344 -9 90 30 200 86 196 100 -1 6 -14 43 -28 83
-27 79 -58 221 -69 317 -4 33 -9 70 -10 83 -4 26 -13 127 -20 217 -12 154 -17
418 -16 845 2 539 5 687 15 697 3 4 17 8 29 10 12 2 56 10 97 18 41 8 86 17
100 20 14 2 46 9 71 15 26 6 53 10 60 9 8 -1 25 2 39 8 14 6 42 13 63 17 34 6
37 5 38 -16 0 -13 2 -30 4 -39 17 -86 38 -759 25 -772 -3 -3 -22 -8 -42 -11
-21 -3 -53 -8 -71 -11 -19 -3 -49 -7 -68 -10 -19 -2 -56 -7 -84 -10 -27 -4
-60 -8 -73 -10 -12 -1 -25 -5 -29 -8 -3 -4 6 -41 21 -84 40 -114 48 -133 55
-129 3 2 34 7 68 10 35 4 68 8 75 11 7 2 37 6 66 9 29 3 57 8 62 11 17 10 23
-18 20 -104 -6 -214 -17 -469 -26 -591 -2 -30 -6 -157 -9 -281 -4 -207 -3
-230 15 -280 11 -29 20 -55 20 -56 0 -1 19 -13 42 -27 88 -51 235 -34 423 49
l56 24 -16 30 c-17 34 -19 45 -6 37 5 -3 11 8 15 24 3 17 11 30 18 30 9 0 9
-3 0 -12 -18 -18 -15 -63 6 -80 30 -26 48 -27 100 -3 37 17 49 20 48 9 -1 -7
-5 -16 -8 -20 -13 -13 5 -61 34 -91 18 -18 33 -31 36 -29 2 2 16 1 32 -4 24
-7 33 -3 59 22 29 28 34 44 33 93 -1 23 -9 79 -17 112 -3 13 -7 32 -9 43 -3
11 -2 20 2 20 12 0 34 -17 34 -26 1 -10 32 -45 86 -100 26 -26 38 -32 65 -29
36 5 79 47 71 70 -4 8 -1 15 4 15 6 0 2 18 -10 39 -21 40 -64 68 -140 91 -21
6 -38 15 -39 18 -6 38 -4 62 3 62 5 0 7 4 4 8 -9 14 28 29 54 21 24 -7 22 -10
-10 -13 -18 -1 -27 -46 -9 -46 7 0 9 -3 6 -7 -12 -11 33 -35 68 -35 45 0 55 8
55 43 0 22 -7 32 -25 41 -14 6 -25 15 -25 20 0 5 4 6 10 3 12 -8 60 39 60 59
0 17 -55 65 -76 67 -8 1 -20 2 -26 3 -7 1 -19 -2 -25 -7 -7 -5 -13 -6 -13 -2
0 4 -7 2 -15 -5 -8 -7 -15 -9 -15 -5 0 4 -6 3 -13 -4 -10 -8 -17 -7 -25 1 -10
10 0 24 44 64 66 61 70 89 14 116 -19 10 -32 19 -27 19 4 1 12 3 17 4 6 1 17
3 25 4 17 1 51 61 35 61 -6 0 -9 4 -6 8 10 17 -12 33 -54 37 -49 5 -69 -11
-70 -56 0 -27 21 -54 33 -42 4 3 7 1 7 -5 0 -10 -37 -18 -64 -13 -4 1 -22 -14
-40 -33 -45 -51 -51 -59 -59 -78 -3 -10 -14 -18 -23 -18 -13 0 -14 7 -9 37 17
93 17 129 0 143 -9 8 -22 15 -29 16 -6 1 -15 3 -21 4 -70 16 -123 -27 -118
-93 6 -66 6 -67 13 -67 4 0 7 -7 7 -15 0 -8 -4 -15 -9 -15 -4 0 -8 4 -8 9 0 6
-16 22 -35 36 -38 30 -68 27 -86 -7 -9 -16 -7 -26 9 -48 29 -38 13 -57 -22
-26 -34 33 -49 110 -20 104 11 -3 31 1 46 9 47 23 7 83 -47 69 l-22 -6 1 317
c1 308 2 316 21 319 11 2 45 6 75 10 30 3 64 8 75 10 11 2 43 6 70 9 28 3 57
8 65 10 8 3 31 7 50 9 45 6 184 30 295 52 65 13 81 15 85 13 3 -1 15 3 26 9
12 6 36 14 55 17 47 8 109 24 139 36 14 5 34 11 45 13 29 6 188 57 200 64 6 4
15 7 20 8 21 3 213 88 275 121 83 45 164 95 168 105 2 5 10 8 17 8 7 0 15 7
19 15 3 8 10 15 17 15 6 0 26 15 44 34 18 19 36 32 39 29 3 -4 6 1 6 10 0 9 4
17 8 17 9 0 68 79 72 95 1 6 8 18 17 27 8 10 13 24 10 32 -3 8 0 17 7 19 9 4
12 28 11 84 -1 43 -3 79 -5 81 -1 1 -3 5 -4 10 -1 4 -6 22 -10 40 -4 17 -12
32 -17 32 -6 0 -7 5 -4 10 3 6 3 10 -2 10 -4 0 -20 19 -35 43 -15 23 -42 54
-60 70 -18 15 -44 36 -57 47 -13 11 -30 20 -37 20 -7 0 -14 4 -16 8 -3 8 -109
62 -121 62 -3 0 -18 5 -34 12 -32 13 -41 16 -68 22 -11 2 -20 5 -20 6 0 2 -35
10 -62 15 -11 1 -32 6 -45 11 -12 4 -34 9 -48 10 -14 2 -38 5 -55 8 -158 23
-232 28 -440 30 -104 1 -195 -2 -202 -6 -6 -5 -14 -5 -18 2 -4 6 -13 7 -23 2
-9 -5 -41 -8 -70 -8 -28 1 -52 -1 -52 -4 0 -3 -33 -7 -73 -9 -77 -4 -122 -8
-122 -11 0 -1 -16 -3 -35 -5 -19 -1 -59 -6 -87 -10 -46 -6 -53 -5 -53 10 0 14
-11 16 -97 10 -165 -11 -224 -13 -346 -15 -85 -1 -117 -5 -114 -14 3 -6 12
-28 21 -48 17 -41 14 -46 -35 -52 -19 -3 -56 -10 -84 -15 -27 -6 -61 -13 -75
-15 -14 -3 -25 -5 -25 -6 0 -3 -61 -12 -82 -12 -13 0 -23 -4 -23 -8 0 -4 -10
-8 -22 -8 -31 -2 -51 -6 -65 -15 -15 -10 -15 -8 -13 130 1 98 6 163 12 168 2
2 35 6 73 10 39 4 81 8 95 10 91 10 152 16 200 20 93 6 205 18 290 29 25 3 68
8 95 11 28 3 70 8 94 11 69 8 102 12 166 19 33 3 70 8 81 10 53 9 173 21 284
30 41 3 93 7 115 10 45 5 140 13 230 20 33 3 83 7 110 10 85 7 198 17 235 20
19 2 71 6 115 10 44 4 96 8 115 10 135 11 190 16 225 21 22 3 56 7 75 9 19 2
51 6 70 9 19 4 49 8 65 10 17 3 54 10 83 16 30 7 59 13 65 14 7 1 18 5 25 9 6
5 17 5 22 2 6 -3 10 -1 10 5 0 6 4 9 8 6 14 -8 165 71 195 102 63 66 69 162
15 247 -20 29 -115 122 -140 137 -33 18 -38 17 -93 -8z m-1345 -1138 c221 -16
395 -77 484 -170 54 -57 95 -139 92 -189 -1 -20 3 -37 9 -37 7 0 7 -3 0 -8 -6
-4 -10 -14 -10 -22 1 -8 -3 -21 -8 -27 -5 -7 -6 -13 -3 -13 10 0 -29 -53 -72
-98 -47 -48 -111 -92 -201 -137 -74 -37 -261 -108 -261 -99 0 2 -8 0 -18 -5
-11 -6 -30 -12 -43 -15 -13 -3 -71 -16 -129 -30 -107 -25 -161 -35 -215 -42
-16 -1 -50 -6 -75 -8 -25 -3 -70 -8 -100 -11 -30 -4 -69 -10 -87 -15 -55 -14
-53 -35 -39 365 14 401 22 516 37 525 10 7 63 15 169 26 14 1 75 5 135 9 61 4
111 8 112 9 3 3 151 -2 223 -8z m-510 -2246 c0 -5 -2 -10 -4 -10 -3 0 -8 5
-11 10 -3 6 -1 10 4 10 6 0 11 -4 11 -10z m-12 -65 c-1 -14 -6 -25 -10 -25 -4
0 -7 11 -6 25 1 14 6 25 10 25 4 0 7 -11 6 -25z"/>
<path d="M3299 1980 c-5 -29 -2 -35 16 -35 21 0 35 12 35 33 0 14 -49 17 -51
2z"/>
<path d="M3450 1450 c-30 -19 -13 -62 20 -53 23 6 25 22 8 46 -9 12 -17 14
-28 7z"/>
<path d="M2824 1118 c-22 -10 -50 -55 -45 -73 2 -5 4 -17 5 -25 3 -18 53 -39
77 -33 48 13 59 69 23 112 -28 34 -29 34 -60 19z"/>
<path d="M994 811 c-13 -14 -1 -30 24 -29 15 0 33 0 40 -1 9 -1 12 -37 12
-146 0 -132 2 -145 18 -145 16 0 18 12 17 145 -1 156 -3 150 53 145 20 -1 26
7 20 27 -3 8 -176 12 -184 4z"/>
<path d="M1222 678 c3 -139 3 -140 31 -164 15 -13 37 -24 48 -24 10 0 19 -5
19 -11 0 -8 5 -8 15 1 10 8 15 9 15 1 0 -16 60 21 83 52 18 23 21 43 22 151 1
90 -2 127 -11 130 -21 8 -24 -5 -24 -120 0 -63 -5 -124 -11 -138 -21 -46 -99
-54 -135 -14 -15 16 -18 39 -18 143 -1 112 -3 124 -19 129 -18 4 -19 -3 -15
-136z"/>
<path d="M1543 805 c-27 -19 -37 -59 -21 -89 7 -13 37 -43 67 -67 70 -57 79
-71 62 -102 -23 -43 -88 -38 -126 10 -7 8 -15 10 -25 3 -28 -17 58 -88 100
-81 34 6 80 34 87 54 18 55 8 79 -48 122 -79 61 -89 71 -89 91 0 45 49 58 93
24 21 -17 26 -18 37 -5 10 12 6 18 -22 35 -39 24 -85 26 -115 5z"/>
<path d="M1884 808 c-3 -5 -6 -64 -5 -131 0 -190 -1 -187 16 -187 16 0 17 0
19 82 0 31 3 59 6 61 3 3 28 7 55 8 75 4 103 18 116 57 25 76 -13 111 -126
116 -42 2 -78 -1 -81 -6z m146 -33 c24 -8 38 -38 29 -63 -11 -28 -51 -44 -103
-40 l-41 3 0 50 c-1 46 1 51 25 56 24 5 59 3 90 -6z"/>
<path d="M2509 816 c-1 -1 -2 -74 -3 -163 -2 -151 -1 -163 16 -163 16 0 18 10
18 75 l0 75 50 1 c28 1 53 2 58 3 63 15 92 59 72 112 -15 40 -53 56 -135 58
-41 1 -76 2 -76 2z m163 -53 c14 -12 17 -25 13 -43 -9 -37 -33 -50 -92 -50
l-53 0 0 54 c0 44 3 55 18 58 35 7 96 -3 114 -19z"/>
<path d="M2781 652 l0 -163 99 3 c123 4 138 22 23 26 -82 3 -83 3 -84 30 -2
32 -2 84 0 95 1 4 37 7 80 7 73 0 106 10 82 24 -5 3 -43 7 -85 8 -42 1 -76 4
-77 7 0 3 -2 23 -3 44 -2 48 8 53 96 51 49 -1 68 2 72 12 6 17 9 16 -108 18
l-94 1 -1 -163z"/>
<path d="M3043 813 c-9 -3 -12 -48 -12 -164 l0 -159 84 0 c79 0 110 10 84 26
-7 4 -38 6 -70 5 -55 -1 -59 0 -60 21 0 13 0 78 0 145 0 68 -3 124 -7 126 -4
3 -12 2 -19 0z"/>
<path d="M3252 810 c-4 -3 -8 -76 -8 -162 l1 -158 97 0 c58 0 99 4 103 11 11
16 5 18 -83 20 l-82 2 0 63 0 64 83 0 c68 0 84 3 84 15 0 8 -10 15 -21 16 -12
0 -48 1 -81 2 l-60 2 0 49 0 50 80 0 c63 1 80 4 80 16 0 12 -18 15 -93 15 -51
0 -96 -2 -100 -5z"/>
<path d="M3503 794 c-20 -20 -24 -32 -19 -57 6 -31 17 -44 90 -100 49 -38 63
-74 39 -98 -31 -31 -69 -31 -100 0 -26 25 -53 31 -53 12 0 -16 53 -61 71 -61
11 0 19 -6 19 -12 0 -9 4 -8 10 2 6 9 10 10 10 3 0 -8 8 -7 28 3 42 21 63 48
64 83 1 36 -17 59 -89 113 -37 27 -53 46 -53 61 0 48 48 62 93 27 21 -17 27
-18 36 -6 9 11 6 18 -18 35 -41 30 -95 28 -128 -5z"/>
<path d="M2286 802 c-14 -23 -156 -301 -156 -306 0 -3 8 -6 18 -6 12 0 27 19
45 54 l26 55 77 -2 76 -1 26 -53 c17 -35 32 -53 44 -53 10 0 18 2 18 5 0 12
-156 315 -162 315 -4 0 -9 -4 -12 -8z m39 -112 c14 -27 25 -52 25 -55 0 -3
-25 -5 -55 -5 -30 0 -55 2 -55 5 0 10 50 105 55 105 3 0 16 -22 30 -50z"/>
</g>
</svg>
