<?xml version="1.0" encoding="utf-8"?>
<svg xmlns="http://www.w3.org/2000/svg">
  <defs>
    <symbol viewBox="0 0 21 20" id="cart" fill="none">
    <path d="M1 1.17578L3.08 1.5316L4.04301 12.8715C4.12001 13.7976 4.90301 14.5082 5.84301 14.5053H16.752C17.649 14.5072 18.41 13.8549 18.537 12.9772L19.486 6.49532C19.592 5.77083 19.083 5.09872 18.351 4.99395C18.287 4.98505 3.414 4.98011 3.414 4.98011" stroke-linecap="round" stroke-linejoin="round"/>
    <path d="M12.375 8.63337H15.1479"  stroke-linecap="round" stroke-linejoin="round"/>
    <path fill-rule="evenodd" clip-rule="evenodd" d="M5.4043 17.9316C5.70527 17.9316 5.94824 18.1729 5.94824 18.4696C5.94824 18.7673 5.70527 19.0085 5.4043 19.0085C5.10333 19.0085 4.86035 18.7673 4.86035 18.4696C4.86035 18.1729 5.10333 17.9316 5.4043 17.9316Z"  stroke-linecap="round" stroke-linejoin="round"/>
    <path fill-rule="evenodd" clip-rule="evenodd" d="M16.6846 17.9316C16.9856 17.9316 17.2296 18.1729 17.2296 18.4696C17.2296 18.7673 16.9856 19.0085 16.6846 19.0085C16.3836 19.0085 16.1406 18.7673 16.1406 18.4696C16.1406 18.1729 16.3836 17.9316 16.6846 17.9316Z" stroke-linecap="round" stroke-linejoin="round"/>
    </symbol>
    <symbol viewBox="0 0 21 22" id="search" fill="none">
<ellipse cx="9.76663" cy="10.6301" rx="8.98856" ry="8.88424"  stroke-width="1.5" stroke-linecap="round" stroke-linejoin="round"/>
<path d="M16.0184 17.2708L19.5424 20.7448" stroke-width="1.5" stroke-linecap="round" stroke-linejoin="round"/>
</symbol>
<symbol id="facebook" viewBox="0 0 448 512"><path d="M400 32H48A48 48 0 0 0 0 80v352a48 48 0 0 0 48 48h137.25V327.69h-63V256h63v-54.64c0-62.15 37-96.48 93.67-96.48 27.14 0 55.52 4.84 55.52 4.84v61h-31.27c-30.81 0-40.42 19.12-40.42 38.73V256h68.78l-11 71.69h-57.78V480H400a48 48 0 0 0 48-48V80a48 48 0 0 0-48-48z"/></symbol>
<symbol viewBox="0 0 512 512" id="star"><path d="M496,203.3H312.36L256,32,199.64,203.3H16L166.21,308.7,107.71,480,256,373.84,404.29,480,345.68,308.7Z"/></symbol>
<symbol viewBox="0 0 22 18" id="arrow"><path d="M21.883 12l-7.527 6.235.644.765 9-7.521-9-7.479-.645.764 7.529 6.236h-21.884v1h21.883z"/></symbol>
</defs>
</svg>